<?xml version="1.0" encoding="utf-8" standalone="no"?>
<!DOCTYPE svg PUBLIC "-//W3C//DTD SVG 1.1//EN"
  "http://www.w3.org/Graphics/SVG/1.1/DTD/svg11.dtd">
<svg xmlns:xlink="http://www.w3.org/1999/xlink" width="430.488532pt" height="552.68pt" viewBox="0 0 430.488532 552.68" xmlns="http://www.w3.org/2000/svg" version="1.1">
 <metadata>
  <rdf:RDF xmlns:dc="http://purl.org/dc/elements/1.1/" xmlns:cc="http://creativecommons.org/ns#" xmlns:rdf="http://www.w3.org/1999/02/22-rdf-syntax-ns#">
   <cc:Work>
    <dc:type rdf:resource="http://purl.org/dc/dcmitype/StillImage"/>
    <dc:date>2026-09-16T22:02:10.413508</dc:date>
    <dc:format>image/svg+xml</dc:format>
    <dc:creator>
     <cc:Agent>
      <dc:title>Matplotlib v3.10.0, https://matplotlib.org/</dc:title>
     </cc:Agent>
    </dc:creator>
   </cc:Work>
  </rdf:RDF>
 </metadata>
 <defs>
  <style type="text/css">*{stroke-linejoin: round; stroke-linecap: butt}</style>
 </defs>
 <g id="figure_1">
  <g id="patch_1">
   <path d="M -0 552.68 
L 430.488532 552.68 
L 430.488532 0 
L -0 0 
z
" style="fill: #ffffff"/>
  </g>
  <g id="axes_1">
   <g id="patch_2">
    <path d="M 66.08 507.12 
L 408.711579 507.12 
L 408.711579 29.04 
L 66.08 29.04 
z
" style="fill: #ffffff"/>
   </g>
   <g id="matplotlib.axis_1">
    <g id="xtick_1">
     <g id="line2d_1">
      <path d="M 73.974737 507.12 
L 73.974737 29.04 
" clip-path="url(#p422f0e168a)" style="fill: none; stroke: #b0b0b0; stroke-opacity: 0.15; stroke-width: 0.8; stroke-linecap: square"/>
     </g>
     <g id="line2d_2">
      <defs>
       <path id="m0d32940180" d="M 0 0 
L 0 3.5 
" style="stroke: #000000; stroke-width: 0.8"/>
      </defs>
      <g>
       <use xlink:href="#m0d32940180" x="73.974737" y="507.12" style="stroke: #000000; stroke-width: 0.8"/>
      </g>
     </g>
     <g id="text_1">
      <text style="font-size: 11px; font-family: 'DejaVu Sans'; text-anchor: middle" x="73.974737" y="522.478281" transform="rotate(-0 73.974737 522.478281)">0</text>
     </g>
    </g>
    <g id="xtick_2">
     <g id="line2d_3">
      <path d="M 139.220496 507.12 
L 139.220496 29.04 
" clip-path="url(#p422f0e168a)" style="fill: none; stroke: #b0b0b0; stroke-opacity: 0.15; stroke-width: 0.8; stroke-linecap: square"/>
     </g>
     <g id="line2d_4">
      <g>
       <use xlink:href="#m0d32940180" x="139.220496" y="507.12" style="stroke: #000000; stroke-width: 0.8"/>
      </g>
     </g>
     <g id="text_2">
      <text style="font-size: 11px; font-family: 'DejaVu Sans'; text-anchor: middle" x="139.220496" y="522.478281" transform="rotate(-0 139.220496 522.478281)">2000</text>
     </g>
    </g>
    <g id="xtick_3">
     <g id="line2d_5">
      <path d="M 204.466255 507.12 
L 204.466255 29.04 
" clip-path="url(#p422f0e168a)" style="fill: none; stroke: #b0b0b0; stroke-opacity: 0.15; stroke-width: 0.8; stroke-linecap: square"/>
     </g>
     <g id="line2d_6">
      <g>
       <use xlink:href="#m0d32940180" x="204.466255" y="507.12" style="stroke: #000000; stroke-width: 0.8"/>
      </g>
     </g>
     <g id="text_3">
      <text style="font-size: 11px; font-family: 'DejaVu Sans'; text-anchor: middle" x="204.466255" y="522.478281" transform="rotate(-0 204.466255 522.478281)">4000</text>
     </g>
    </g>
    <g id="xtick_4">
     <g id="line2d_7">
      <path d="M 269.712014 507.12 
L 269.712014 29.04 
" clip-path="url(#p422f0e168a)" style="fill: none; stroke: #b0b0b0; stroke-opacity: 0.15; stroke-width: 0.8; stroke-linecap: square"/>
     </g>
     <g id="line2d_8">
      <g>
       <use xlink:href="#m0d32940180" x="269.712014" y="507.12" style="stroke: #000000; stroke-width: 0.8"/>
      </g>
     </g>
     <g id="text_4">
      <text style="font-size: 11px; font-family: 'DejaVu Sans'; text-anchor: middle" x="269.712014" y="522.478281" transform="rotate(-0 269.712014 522.478281)">6000</text>
     </g>
    </g>
    <g id="xtick_5">
     <g id="line2d_9">
      <path d="M 334.957773 507.12 
L 334.957773 29.04 
" clip-path="url(#p422f0e168a)" style="fill: none; stroke: #b0b0b0; stroke-opacity: 0.15; stroke-width: 0.8; stroke-linecap: square"/>
     </g>
     <g id="line2d_10">
      <g>
       <use xlink:href="#m0d32940180" x="334.957773" y="507.12" style="stroke: #000000; stroke-width: 0.8"/>
      </g>
     </g>
     <g id="text_5">
      <text style="font-size: 11px; font-family: 'DejaVu Sans'; text-anchor: middle" x="334.957773" y="522.478281" transform="rotate(-0 334.957773 522.478281)">8000</text>
     </g>
    </g>
    <g id="xtick_6">
     <g id="line2d_11">
      <path d="M 400.203532 507.12 
L 400.203532 29.04 
" clip-path="url(#p422f0e168a)" style="fill: none; stroke: #b0b0b0; stroke-opacity: 0.15; stroke-width: 0.8; stroke-linecap: square"/>
     </g>
     <g id="line2d_12">
      <g>
       <use xlink:href="#m0d32940180" x="400.203532" y="507.12" style="stroke: #000000; stroke-width: 0.8"/>
      </g>
     </g>
     <g id="text_6">
      <text style="font-size: 11px; font-family: 'DejaVu Sans'; text-anchor: middle" x="400.203532" y="522.478281" transform="rotate(-0 400.203532 522.478281)">10000</text>
     </g>
    </g>
    <g id="text_7">
     <text style="font-size: 11px; font-family: 'DejaVu Sans'; text-anchor: middle; fill: #19232e" x="237.395789" y="537.124219" transform="rotate(-0 237.395789 537.124219)">Reported reasoning tokens per report</text>
    </g>
   </g>
   <g id="matplotlib.axis_2">
    <g id="ytick_1">
     <g id="line2d_13">
      <path d="M 66.08 498.266667 
L 408.711579 498.266667 
" clip-path="url(#p422f0e168a)" style="fill: none; stroke: #b0b0b0; stroke-opacity: 0.15; stroke-width: 0.8; stroke-linecap: square"/>
     </g>
     <g id="line2d_14">
      <defs>
       <path id="mc651e11a1f" d="M 0 0 
L -3.5 0 
" style="stroke: #000000; stroke-width: 0.8"/>
      </defs>
      <g>
       <use xlink:href="#mc651e11a1f" x="66.08" y="498.266667" style="stroke: #000000; stroke-width: 0.8"/>
      </g>
     </g>
     <g id="text_8">
      <text style="font-size: 11px; font-family: 'DejaVu Sans'; text-anchor: end" x="59.08" y="502.445807" transform="rotate(-0 59.08 502.445807)">0%</text>
     </g>
    </g>
    <g id="ytick_2">
     <g id="line2d_15">
      <path d="M 66.08 409.733333 
L 408.711579 409.733333 
" clip-path="url(#p422f0e168a)" style="fill: none; stroke: #b0b0b0; stroke-opacity: 0.15; stroke-width: 0.8; stroke-linecap: square"/>
     </g>
     <g id="line2d_16">
      <g>
       <use xlink:href="#mc651e11a1f" x="66.08" y="409.733333" style="stroke: #000000; stroke-width: 0.8"/>
      </g>
     </g>
     <g id="text_9">
      <text style="font-size: 11px; font-family: 'DejaVu Sans'; text-anchor: end" x="59.08" y="413.912474" transform="rotate(-0 59.08 413.912474)">20%</text>
     </g>
    </g>
    <g id="ytick_3">
     <g id="line2d_17">
      <path d="M 66.08 321.2 
L 408.711579 321.2 
" clip-path="url(#p422f0e168a)" style="fill: none; stroke: #b0b0b0; stroke-opacity: 0.15; stroke-width: 0.8; stroke-linecap: square"/>
     </g>
     <g id="line2d_18">
      <g>
       <use xlink:href="#mc651e11a1f" x="66.08" y="321.2" style="stroke: #000000; stroke-width: 0.8"/>
      </g>
     </g>
     <g id="text_10">
      <text style="font-size: 11px; font-family: 'DejaVu Sans'; text-anchor: end" x="59.08" y="325.379141" transform="rotate(-0 59.08 325.379141)">40%</text>
     </g>
    </g>
    <g id="ytick_4">
     <g id="line2d_19">
      <path d="M 66.08 232.666667 
L 408.711579 232.666667 
" clip-path="url(#p422f0e168a)" style="fill: none; stroke: #b0b0b0; stroke-opacity: 0.15; stroke-width: 0.8; stroke-linecap: square"/>
     </g>
     <g id="line2d_20">
      <g>
       <use xlink:href="#mc651e11a1f" x="66.08" y="232.666667" style="stroke: #000000; stroke-width: 0.8"/>
      </g>
     </g>
     <g id="text_11">
      <text style="font-size: 11px; font-family: 'DejaVu Sans'; text-anchor: end" x="59.08" y="236.845807" transform="rotate(-0 59.08 236.845807)">60%</text>
     </g>
    </g>
    <g id="ytick_5">
     <g id="line2d_21">
      <path d="M 66.08 144.133333 
L 408.711579 144.133333 
" clip-path="url(#p422f0e168a)" style="fill: none; stroke: #b0b0b0; stroke-opacity: 0.15; stroke-width: 0.8; stroke-linecap: square"/>
     </g>
     <g id="line2d_22">
      <g>
       <use xlink:href="#mc651e11a1f" x="66.08" y="144.133333" style="stroke: #000000; stroke-width: 0.8"/>
      </g>
     </g>
     <g id="text_12">
      <text style="font-size: 11px; font-family: 'DejaVu Sans'; text-anchor: end" x="59.08" y="148.312474" transform="rotate(-0 59.08 148.312474)">80%</text>
     </g>
    </g>
    <g id="ytick_6">
     <g id="line2d_23">
      <path d="M 66.08 55.6 
L 408.711579 55.6 
" clip-path="url(#p422f0e168a)" style="fill: none; stroke: #b0b0b0; stroke-opacity: 0.15; stroke-width: 0.8; stroke-linecap: square"/>
     </g>
     <g id="line2d_24">
      <g>
       <use xlink:href="#mc651e11a1f" x="66.08" y="55.6" style="stroke: #000000; stroke-width: 0.8"/>
      </g>
     </g>
     <g id="text_13">
      <text style="font-size: 11px; font-family: 'DejaVu Sans'; text-anchor: end" x="59.08" y="59.779141" transform="rotate(-0 59.08 59.779141)">100%</text>
     </g>
    </g>
    <g id="text_14">
     <text style="font-size: 11px; font-family: 'DejaVu Sans'; text-anchor: middle; fill: #19232e" x="21.344375" y="268.08" transform="rotate(-90 21.344375 268.08)">Reports at or below this token count</text>
    </g>
   </g>
   <g id="line2d_25">
    <path d="M 73.974737 498.266667 
L 74.496703 498.266667 
L 74.496703 489.413333 
L 74.594572 489.413333 
L 74.594572 480.56 
L 74.659817 480.56 
L 74.659817 471.706667 
L 74.725063 471.706667 
L 74.725063 462.853333 
L 74.757686 462.853333 
L 74.757686 454 
L 74.790309 454 
L 74.790309 445.146667 
L 74.790309 445.146667 
L 74.790309 436.293333 
L 74.822932 436.293333 
L 74.822932 427.44 
L 74.855555 427.44 
L 74.855555 418.586667 
L 74.855555 418.586667 
L 74.855555 409.733333 
L 74.888177 409.733333 
L 74.888177 400.88 
L 74.9208 400.88 
L 74.9208 392.026667 
L 74.953423 392.026667 
L 74.953423 383.173333 
L 74.953423 383.173333 
L 74.953423 374.32 
L 74.986046 374.32 
L 74.986046 365.466667 
L 74.986046 365.466667 
L 74.986046 356.613333 
L 74.986046 356.613333 
L 74.986046 347.76 
L 75.018669 347.76 
L 75.018669 338.906667 
L 75.018669 338.906667 
L 75.018669 330.053333 
L 75.051292 330.053333 
L 75.051292 321.2 
L 75.051292 321.2 
L 75.051292 312.346667 
L 75.051292 312.346667 
L 75.051292 303.493333 
L 75.051292 303.493333 
L 75.051292 294.64 
L 75.116538 294.64 
L 75.116538 285.786667 
L 75.149161 285.786667 
L 75.149161 276.933333 
L 75.149161 276.933333 
L 75.149161 268.08 
L 75.149161 268.08 
L 75.149161 259.226667 
L 75.181783 259.226667 
L 75.181783 250.373333 
L 75.214406 250.373333 
L 75.214406 241.52 
L 75.214406 241.52 
L 75.214406 232.666667 
L 75.247029 232.666667 
L 75.247029 223.813333 
L 75.247029 223.813333 
L 75.247029 214.96 
L 75.247029 214.96 
L 75.247029 206.106667 
L 75.247029 206.106667 
L 75.247029 197.253333 
L 75.279652 197.253333 
L 75.279652 188.4 
L 75.279652 188.4 
L 75.279652 179.546667 
L 75.344898 179.546667 
L 75.344898 170.693333 
L 75.377521 170.693333 
L 75.377521 161.84 
L 75.410144 161.84 
L 75.410144 152.986667 
L 75.442766 152.986667 
L 75.442766 144.133333 
L 75.442766 144.133333 
L 75.442766 135.28 
L 75.475389 135.28 
L 75.475389 126.426667 
L 75.475389 126.426667 
L 75.475389 117.573333 
L 75.508012 117.573333 
L 75.508012 108.72 
L 75.573258 108.72 
L 75.573258 99.866667 
L 75.605881 99.866667 
L 75.605881 91.013333 
L 75.736372 91.013333 
L 75.736372 82.16 
L 75.801618 82.16 
L 75.801618 73.306667 
L 75.866864 73.306667 
L 75.866864 64.453333 
L 76.16047 64.453333 
L 76.16047 55.6 
L 405.553684 55.6 
L 405.553684 55.6 
" clip-path="url(#p422f0e168a)" style="fill: none; stroke: #56a5c5; stroke-width: 2; stroke-linecap: square"/>
   </g>
   <g id="line2d_26">
    <path d="M 73.974737 498.266667 
L 141.504097 498.266667 
L 141.504097 489.413333 
L 158.402749 489.413333 
L 158.402749 480.56 
L 158.402749 480.56 
L 158.402749 471.706667 
L 158.402749 471.706667 
L 158.402749 462.853333 
L 163.720278 462.853333 
L 163.720278 454 
L 171.745507 454 
L 171.745507 445.146667 
L 175.301401 445.146667 
L 175.301401 436.293333 
L 175.301401 436.293333 
L 175.301401 427.44 
L 175.301401 427.44 
L 175.301401 418.586667 
L 175.301401 418.586667 
L 175.301401 409.733333 
L 175.301401 409.733333 
L 175.301401 400.88 
L 184.305315 400.88 
L 184.305315 392.026667 
L 184.69679 392.026667 
L 184.69679 383.173333 
L 187.437112 383.173333 
L 187.437112 374.32 
L 189.720713 374.32 
L 189.720713 365.466667 
L 190.503662 365.466667 
L 190.503662 356.613333 
L 192.200052 356.613333 
L 192.200052 347.76 
L 192.200052 347.76 
L 192.200052 338.906667 
L 192.200052 338.906667 
L 192.200052 330.053333 
L 192.200052 330.053333 
L 192.200052 321.2 
L 192.200052 321.2 
L 192.200052 312.346667 
L 197.680696 312.346667 
L 197.680696 303.493333 
L 201.106098 303.493333 
L 201.106098 294.64 
L 201.530196 294.64 
L 201.530196 285.786667 
L 204.368386 285.786667 
L 204.368386 276.933333 
L 204.988221 276.933333 
L 204.988221 268.08 
L 209.098704 268.08 
L 209.098704 259.226667 
L 209.098704 259.226667 
L 209.098704 250.373333 
L 209.098704 250.373333 
L 209.098704 241.52 
L 209.098704 241.52 
L 209.098704 232.666667 
L 209.098704 232.666667 
L 209.098704 223.813333 
L 210.599356 223.813333 
L 210.599356 214.96 
L 214.481479 214.96 
L 214.481479 206.106667 
L 217.613275 206.106667 
L 217.613275 197.253333 
L 217.77639 197.253333 
L 217.77639 188.4 
L 217.809013 188.4 
L 217.809013 179.546667 
L 219.799008 179.546667 
L 219.799008 170.693333 
L 221.593267 170.693333 
L 221.593267 161.84 
L 222.180478 161.84 
L 222.180478 152.986667 
L 222.343593 152.986667 
L 222.343593 144.133333 
L 222.669822 144.133333 
L 222.669822 135.28 
L 225.997355 135.28 
L 225.997355 126.426667 
L 225.997355 126.426667 
L 225.997355 117.573333 
L 230.956033 117.573333 
L 230.956033 108.72 
L 236.208317 108.72 
L 236.208317 99.866667 
L 250.692875 99.866667 
L 250.692875 91.013333 
L 259.794659 91.013333 
L 259.794659 82.16 
L 267.004315 82.16 
L 267.004315 73.306667 
L 276.138721 73.306667 
L 276.138721 64.453333 
L 276.69331 64.453333 
L 276.69331 55.6 
L 405.553684 55.6 
L 405.553684 55.6 
" clip-path="url(#p422f0e168a)" style="fill: none; stroke: #195d8a; stroke-width: 2; stroke-linecap: square"/>
   </g>
   <g id="line2d_27">
    <path d="M 73.974737 498.266667 
L 73.974737 498.266667 
L 73.974737 489.413333 
L 73.974737 489.413333 
L 73.974737 480.56 
L 73.974737 480.56 
L 73.974737 471.706667 
L 73.974737 471.706667 
L 73.974737 462.853333 
L 73.974737 462.853333 
L 73.974737 454 
L 73.974737 454 
L 73.974737 445.146667 
L 73.974737 445.146667 
L 73.974737 436.293333 
L 73.974737 436.293333 
L 73.974737 427.44 
L 73.974737 427.44 
L 73.974737 418.586667 
L 73.974737 418.586667 
L 73.974737 409.733333 
L 73.974737 409.733333 
L 73.974737 400.88 
L 73.974737 400.88 
L 73.974737 392.026667 
L 73.974737 392.026667 
L 73.974737 383.173333 
L 73.974737 383.173333 
L 73.974737 374.32 
L 73.974737 374.32 
L 73.974737 365.466667 
L 73.974737 365.466667 
L 73.974737 356.613333 
L 73.974737 356.613333 
L 73.974737 347.76 
L 73.974737 347.76 
L 73.974737 338.906667 
L 73.974737 338.906667 
L 73.974737 330.053333 
L 73.974737 330.053333 
L 73.974737 321.2 
L 73.974737 321.2 
L 73.974737 312.346667 
L 73.974737 312.346667 
L 73.974737 303.493333 
L 73.974737 303.493333 
L 73.974737 294.64 
L 73.974737 294.64 
L 73.974737 285.786667 
L 73.974737 285.786667 
L 73.974737 276.933333 
L 73.974737 276.933333 
L 73.974737 268.08 
L 73.974737 268.08 
L 73.974737 259.226667 
L 73.974737 259.226667 
L 73.974737 250.373333 
L 73.974737 250.373333 
L 73.974737 241.52 
L 73.974737 241.52 
L 73.974737 232.666667 
L 73.974737 232.666667 
L 73.974737 223.813333 
L 73.974737 223.813333 
L 73.974737 214.96 
L 73.974737 214.96 
L 73.974737 206.106667 
L 73.974737 206.106667 
L 73.974737 197.253333 
L 73.974737 197.253333 
L 73.974737 188.4 
L 73.974737 188.4 
L 73.974737 179.546667 
L 73.974737 179.546667 
L 73.974737 170.693333 
L 73.974737 170.693333 
L 73.974737 161.84 
L 73.974737 161.84 
L 73.974737 152.986667 
L 73.974737 152.986667 
L 73.974737 144.133333 
L 73.974737 144.133333 
L 73.974737 135.28 
L 73.974737 135.28 
L 73.974737 126.426667 
L 73.974737 126.426667 
L 73.974737 117.573333 
L 73.974737 117.573333 
L 73.974737 108.72 
L 73.974737 108.72 
L 73.974737 99.866667 
L 73.974737 99.866667 
L 73.974737 91.013333 
L 73.974737 91.013333 
L 73.974737 82.16 
L 73.974737 82.16 
L 73.974737 73.306667 
L 73.974737 73.306667 
L 73.974737 64.453333 
L 73.974737 64.453333 
L 73.974737 55.6 
L 405.553684 55.6 
L 405.553684 55.6 
" clip-path="url(#p422f0e168a)" style="fill: none; stroke-dasharray: 7.4,3.2; stroke-dashoffset: 0; stroke: #727d8a; stroke-width: 2"/>
   </g>
   <g id="line2d_28">
    <path d="M 73.974737 498.266667 
L 134.196572 498.266667 
L 134.196572 489.413333 
L 143.983436 489.413333 
L 143.983436 480.56 
L 148.420148 480.56 
L 148.420148 471.706667 
L 153.509317 471.706667 
L 153.509317 462.853333 
L 155.23833 462.853333 
L 155.23833 454 
L 160.849465 454 
L 160.849465 445.146667 
L 165.677651 445.146667 
L 165.677651 436.293333 
L 166.166994 436.293333 
L 166.166994 427.44 
L 167.765515 427.44 
L 167.765515 418.586667 
L 168.450596 418.586667 
L 168.450596 409.733333 
L 175.366646 409.733333 
L 175.366646 400.88 
L 178.92254 400.88 
L 178.92254 392.026667 
L 179.705489 392.026667 
L 179.705489 383.173333 
L 183.326629 383.173333 
L 183.326629 374.32 
L 184.011709 374.32 
L 184.011709 365.466667 
L 186.719408 365.466667 
L 186.719408 356.613333 
L 188.220061 356.613333 
L 188.220061 347.76 
L 188.77465 347.76 
L 188.77465 338.906667 
L 192.950378 338.906667 
L 192.950378 330.053333 
L 194.875128 330.053333 
L 194.875128 321.2 
L 195.397094 321.2 
L 195.397094 312.346667 
L 196.962993 312.346667 
L 196.962993 303.493333 
L 207.141331 303.493333 
L 207.141331 294.64 
L 212.882958 294.64 
L 212.882958 285.786667 
L 215.166559 285.786667 
L 215.166559 276.933333 
L 216.30836 276.933333 
L 216.30836 268.08 
L 223.159165 268.08 
L 223.159165 259.226667 
L 225.703749 259.226667 
L 225.703749 250.373333 
L 227.041288 250.373333 
L 227.041288 241.52 
L 230.727673 241.52 
L 230.727673 232.666667 
L 230.760296 232.666667 
L 230.760296 223.813333 
L 236.991266 223.813333 
L 236.991266 214.96 
L 236.991266 214.96 
L 236.991266 206.106667 
L 238.752901 206.106667 
L 238.752901 197.253333 
L 238.818147 197.253333 
L 238.818147 188.4 
L 240.351422 188.4 
L 240.351422 179.546667 
L 240.612405 179.546667 
L 240.612405 170.693333 
L 245.016494 170.693333 
L 245.016494 161.84 
L 247.593702 161.84 
L 247.593702 152.986667 
L 251.834676 152.986667 
L 251.834676 144.133333 
L 252.813362 144.133333 
L 252.813362 135.28 
L 258.391875 135.28 
L 258.391875 126.426667 
L 264.492353 126.426667 
L 264.492353 117.573333 
L 273.626759 117.573333 
L 273.626759 108.72 
L 294.472779 108.72 
L 294.472779 99.866667 
L 325.758121 99.866667 
L 325.758121 91.013333 
L 327.715494 91.013333 
L 327.715494 82.16 
L 345.201357 82.16 
L 345.201357 73.306667 
L 362.687221 73.306667 
L 362.687221 64.453333 
L 389.764211 64.453333 
L 389.764211 55.6 
L 405.553684 55.6 
L 405.553684 55.6 
" clip-path="url(#p422f0e168a)" style="fill: none; stroke: #cc7900; stroke-width: 2; stroke-linecap: square"/>
   </g>
   <g id="line2d_29">
    <path d="M 73.974737 498.266667 
L 120.6907 498.266667 
L 120.6907 489.413333 
L 123.887742 489.413333 
L 123.887742 480.56 
L 126.497573 480.56 
L 126.497573 471.706667 
L 133.576738 471.706667 
L 133.576738 462.853333 
L 136.056077 462.853333 
L 136.056077 454 
L 138.404924 454 
L 138.404924 445.146667 
L 138.763776 445.146667 
L 138.763776 436.293333 
L 140.036068 436.293333 
L 140.036068 427.44 
L 140.949508 427.44 
L 140.949508 418.586667 
L 141.76508 418.586667 
L 141.76508 409.733333 
L 142.221801 409.733333 
L 142.221801 400.88 
L 144.70114 400.88 
L 144.70114 392.026667 
L 145.125237 392.026667 
L 145.125237 383.173333 
L 147.832936 383.173333 
L 147.832936 374.32 
L 150.442766 374.32 
L 150.442766 365.466667 
L 154.846855 365.466667 
L 154.846855 356.613333 
L 157.16308 356.613333 
L 157.16308 347.76 
L 159.511927 347.76 
L 159.511927 338.906667 
L 164.796833 338.906667 
L 164.796833 330.053333 
L 165.286177 330.053333 
L 165.286177 321.2 
L 166.069126 321.2 
L 166.069126 312.346667 
L 167.504532 312.346667 
L 167.504532 303.493333 
L 167.896007 303.493333 
L 167.896007 294.64 
L 167.896007 294.64 
L 167.896007 285.786667 
L 168.450596 285.786667 
L 168.450596 276.933333 
L 169.200922 276.933333 
L 169.200922 268.08 
L 171.321409 268.08 
L 171.321409 259.226667 
L 173.637634 259.226667 
L 173.637634 250.373333 
L 174.094354 250.373333 
L 174.094354 241.52 
L 174.322714 241.52 
L 174.322714 232.666667 
L 175.268778 232.666667 
L 175.268778 223.813333 
L 175.301401 223.813333 
L 175.301401 214.96 
L 176.08435 214.96 
L 176.08435 206.106667 
L 176.377956 206.106667 
L 176.377956 197.253333 
L 176.867299 197.253333 
L 176.867299 188.4 
L 178.792049 188.4 
L 178.792049 179.546667 
L 180.945159 179.546667 
L 180.945159 170.693333 
L 184.272692 170.693333 
L 184.272692 161.84 
L 185.349247 161.84 
L 185.349247 152.986667 
L 186.327934 152.986667 
L 186.327934 144.133333 
L 186.327934 144.133333 
L 186.327934 135.28 
L 188.285307 135.28 
L 188.285307 126.426667 
L 192.297921 126.426667 
L 192.297921 117.573333 
L 197.648073 117.573333 
L 197.648073 108.72 
L 199.148726 108.72 
L 199.148726 99.866667 
L 199.409709 99.866667 
L 199.409709 91.013333 
L 202.737242 91.013333 
L 202.737242 82.16 
L 205.934284 82.16 
L 205.934284 73.306667 
L 209.327064 73.306667 
L 209.327064 64.453333 
L 226.095224 64.453333 
L 226.095224 55.6 
L 405.553684 55.6 
L 405.553684 55.6 
" clip-path="url(#p422f0e168a)" style="fill: none; stroke: #008575; stroke-width: 2; stroke-linecap: square"/>
   </g>
   <g id="patch_3">
    <path d="M 66.08 507.12 
L 66.08 29.04 
" style="fill: none; stroke: #cbd1d8; stroke-width: 0.8; stroke-linejoin: miter; stroke-linecap: square"/>
   </g>
   <g id="patch_4">
    <path d="M 66.08 507.12 
L 408.711579 507.12 
" style="fill: none; stroke: #cbd1d8; stroke-width: 0.8; stroke-linejoin: miter; stroke-linecap: square"/>
   </g>
   <g id="text_15">
    <text style="font-size: 12px; font-family: 'DejaVu Sans'; text-anchor: middle; fill: #19232e" x="237.395789" y="23.04" transform="rotate(-0 237.395789 23.04)">Reports within each token budget</text>
   </g>
   <g id="legend_1">
    <g id="line2d_30">
     <path d="M 254.93111 441.157031 
L 263.93111 441.157031 
L 263.93111 441.157031 
L 272.93111 441.157031 
L 272.93111 441.157031 
" style="fill: none; stroke: #56a5c5; stroke-width: 2; stroke-linecap: square"/>
    </g>
    <g id="text_16">
     <text style="font-size: 9px; font-family: 'DejaVu Sans'; text-anchor: start; fill: #19232e" x="280.13111" y="444.307031" transform="rotate(-0 280.13111 444.307031)">GPT-6 Astra · low</text>
    </g>
    <g id="line2d_31">
     <path d="M 254.93111 454.367344 
L 263.93111 454.367344 
L 263.93111 454.367344 
L 272.93111 454.367344 
L 272.93111 454.367344 
" style="fill: none; stroke: #195d8a; stroke-width: 2; stroke-linecap: square"/>
    </g>
    <g id="text_17">
     <text style="font-size: 9px; font-family: 'DejaVu Sans'; text-anchor: start; fill: #19232e" x="280.13111" y="457.517344" transform="rotate(-0 280.13111 457.517344)">GPT-6 Astra · high</text>
    </g>
    <g id="line2d_32">
     <path d="M 254.93111 467.577656 
L 263.93111 467.577656 
L 263.93111 467.577656 
L 272.93111 467.577656 
L 272.93111 467.577656 
" style="fill: none; stroke-dasharray: 7.4,3.2; stroke-dashoffset: 0; stroke: #727d8a; stroke-width: 2"/>
    </g>
    <g id="text_18">
     <text style="font-size: 9px; font-family: 'DejaVu Sans'; text-anchor: start; fill: #19232e" x="280.13111" y="470.727656" transform="rotate(-0 280.13111 470.727656)">Claude Opus 5 · medium</text>
    </g>
    <g id="line2d_33">
     <path d="M 254.93111 480.787969 
L 263.93111 480.787969 
L 263.93111 480.787969 
L 272.93111 480.787969 
L 272.93111 480.787969 
" style="fill: none; stroke: #cc7900; stroke-width: 2; stroke-linecap: square"/>
    </g>
    <g id="text_19">
     <text style="font-size: 9px; font-family: 'DejaVu Sans'; text-anchor: start; fill: #19232e" x="280.13111" y="483.937969" transform="rotate(-0 280.13111 483.937969)">Claude Fable 5.1 · medium</text>
    </g>
    <g id="line2d_34">
     <path d="M 254.93111 493.998281 
L 263.93111 493.998281 
L 263.93111 493.998281 
L 272.93111 493.998281 
L 272.93111 493.998281 
" style="fill: none; stroke: #008575; stroke-width: 2; stroke-linecap: square"/>
    </g>
    <g id="text_20">
     <text style="font-size: 9px; font-family: 'DejaVu Sans'; text-anchor: start; fill: #19232e" x="280.13111" y="497.148281" transform="rotate(-0 280.13111 497.148281)">Gemini 3.1 Pro · medium</text>
    </g>
   </g>
  </g>
 </g>
 <defs>
  <clipPath id="p422f0e168a">
   <rect x="66.08" y="29.04" width="342.631579" height="478.08"/>
  </clipPath>
 </defs>
</svg>
